<?xml version="1.0" encoding="utf-8"?>
<!-- Generator: Adobe Illustrator 23.0.3, SVG Export Plug-In . SVG Version: 6.00 Build 0)  -->
<svg version="1.1" id="Capa_1" xmlns="http://www.w3.org/2000/svg" xmlns:xlink="http://www.w3.org/1999/xlink" x="0px" y="0px"
	 viewBox="0 0 1200 1200" enable-background="new 0 0 1200 1200" xml:space="preserve">
<g>
	<g>
		<path fill="#FFAD43" d="M887.357,277.285c-7.124-4.629-15.221-3.204-22.976-3.515c-27.516-1.108-55.101-0.696-82.497-4.338
			c-5.415-0.719-11.242-1.207-16.464-0.003c-19.497,4.494-39.185,3.011-58.801,2.64c-77.953-1.475-155.884,0.234-233.797,1.994
			c-36.158,0.816-72.24,4.574-108.395,6.068c-35.386,1.462-70.819,1.822-106.235,2.512c-22.807,0.445-45.621-0.16-68.317,3.406
			c-9.269,1.456-18.856,1.488-28.275,1.252c-12.418-0.31-16.255-3.292-19.711-15.893c-1.511-5.507-3.022-10.316-7.552-14.087
			c-13.707-11.411-18.111-27.31-19.879-44.017c-1.654-15.633-2.995-31.368-3.154-47.071c-0.168-16.593,1.227-33.242,13.43-46.417
			c4.12-4.447,4.121-9.967,5.029-15.364c2.27-13.499,10.813-20.779,23.967-22.152c9.34-0.974,18.952-1.716,28.213-0.621
			c26.693,3.159,53.45,2.42,80.193,2.635c48.02,0.386,96.05,0.099,144.061,0.941c32.415,0.569,64.428-3.419,96.456-6.94
			c17.262-1.898,34.451-3.481,51.772-3.28c24.402,0.283,48.801,0.946,73.2,1.486c33.867,0.748,67.574-0.033,101.287-4.645
			c26.517-3.627,53.445-2.173,80.212-1.655c37.765,0.73,75.514,1.587,113.179,4.949c18.091,1.614,35.854,4.548,53.416,9.069
			c9.408,2.422,14.893,8.176,16.693,17.689c2.35,12.418,4.63,24.912,2.018,37.484c-2.477,11.923-0.945,23.134,2.323,34.772
			c6.625,23.595,8.532,47.963,9.355,72.393c0.213,6.319,0.032,12.535-2.615,18.517c-4.943,11.167-13.094,17.557-25.547,17.396
			c-4.683-0.061-9.51-0.42-14.001-1.643c-13.122-3.569-26.391-3.975-39.794-2.971C911.895,277.681,899.626,277.483,887.357,277.285z
			"/>
		<path fill="#03CFD3" d="M887.357,277.285c12.269,0.198,24.539,0.396,36.794,0.591c1.789,2.565,4.183,4.906,5.276,7.748
			c2.784,7.234,1.267,12.455-4.153,16.764c-1.226,0.975-2.477,2.377-3.875,2.608c-17.675,2.907-24.839,17.518-34.239,29.952
			c-28.971,38.324-61.33,73.78-93.529,109.359c-49.102,54.259-97.192,109.363-141.108,167.98
			c-4.713,6.291-9.515,12.556-14.742,18.417c-49.255,55.233-94.347,113.8-139.274,172.539
			c-29.144,38.103-59.595,75.208-89.546,112.691c-3.903,4.885-8.321,9.358-12.499,14.021c-14.844-0.247-29.695-0.347-44.536-0.78
			c-17.978-0.525-35.95-1.952-53.919-1.875c-27.365,0.118-54.726,1.194-82.089,1.864c-4.668-4.852-11.447-3.707-17.042-5.978
			c-9.704-3.937-17.823-1.87-23.78,7.094c0,0,0.459-0.012,0.459-0.012c-3.89-0.308-7.909-0.095-11.644-1.024
			c-10.671-2.651-15.44-10.982-12.322-21.457c1.103-3.703,2.777-7.422,4.98-10.583c18.427-26.433,35.69-53.778,58.415-76.929
			c6.6-6.724,13.303-13.457,20.664-19.298c10.598-8.41,19.508-18.014,26.724-29.502c23.926-38.088,52.868-72.284,82.534-105.948
			c15.065-17.095,29.719-34.612,43.603-52.674c22.088-28.734,46.868-55.083,70.968-82.031
			c20.988-23.468,40.586-48.002,59.816-72.923c40.888-52.988,86.243-102.059,133.513-149.394
			c21.208-21.237,46.397-30.573,76.577-29.97c46.374,0.928,92.784,0.124,139.178-0.069
			C874.826,278.44,881.091,277.697,887.357,277.285z"/>
		<path fill="#FF5967" d="M215.917,929.164c27.363-0.67,54.724-1.745,82.089-1.864c17.97-0.077,35.942,1.349,53.919,1.875
			c14.841,0.434,29.691,0.533,44.536,0.78c13.345,0.419,26.693,1.217,40.039,1.184c34.613-0.085,69.241-1.323,103.832-0.621
			c34.738,0.704,69.081-3.75,103.566-6.042c50.297-3.344,100.612-3.87,150.934-3.267c36.939,0.442,73.958,0.018,110.798,3.882
			c2.345,0.246,4.714,0.259,7.065,0.461c22.403,1.931,23.967,3.083,32.265,23.641c0.67,2.232,0.888,4.745,2.076,6.653
			c15.99,25.665,24.755,53.865,29.621,83.462c-2.467,11.502-4.58,23.094-7.471,34.488c-7.019,27.652-23.766,40.575-52.51,40.626
			c-18.065,0.032-36.131-0.279-54.194-0.621c-24.347-0.461-48.681-1.375-72.772,3.702c-5.324,1.122-10.945,1.043-16.436,1.14
			c-54.957,0.962-109.915,2.545-164.873,2.575c-72.184,0.039-144.368-1.25-216.553-1.812c-70.688-0.55-141.378-0.945-212.067-1.301
			c-12.537-0.063-25.078-0.534-37.507,2.459c-9.401,2.264-17.168-0.207-20.395-10.588c11.882-13.47,17.312-31.76,32.135-43.039
			c4.796-11.936,15.456-22.451,8.306-37.28c-1.124-2.331-0.036-6.285,1.107-9.041c2.638-6.358,0.386-11.908-0.837-18.13
			c-4.047-20.579-12.415-38.588-27.089-53.669c-1.539-1.581-2.048-4.163-3.034-6.281c5.684-7.86,13.968-7.354,22.402-7.602
			c7.048-0.207,15.242,3.121,20.687-4.669c-0.001,0.003-0.459,0.014-0.459,0.015C188.827,934.444,202.303,929.302,215.917,929.164z
			 M279.34,1005.552c-4.53-0.835-7.699,0.997-9.767,4.985l0.284-0.254c-7.424,3.042-13.348,8.164-18.863,13.794
			c-5.168,5.276-5.318,8.85-0.654,14.198c20.65,23.676,46.761,29.992,76.707,24.036c6.27,0.113,12.555,0.551,18.809,0.277
			c20.173-0.884,26.146-7.007,28.64-28.79c4.014-2.887,1.115-4.913-0.879-7.052l0.266,0.405c0.532-8.252-3.965-14.974-6.947-22.101
			c-1.907-4.559-5.715-7.388-10.832-7.808c-22.624-1.852-45.27-1.947-67.893-0.206c-4.933,0.38-8.794,3.024-9.215,8.729
			L279.34,1005.552z"/>
		<path fill="#FDAE47" d="M953.852,948.786c2.399-6.896,7.433-9.697,14.523-9.566c13.226,0.245,24.424,5.345,34.166,14.02
			c5.865,5.222,11.438,10.813,17.604,15.649c20.032,15.715,43.555,21.258,68.382,22.461c8.642,0.419,17.322,0.008,25.971,0.337
			c4.681,0.178,9.572,0.405,13.945,1.871c8.018,2.689,13.148,8.464,14.151,17.191c1,8.684-3.781,17.661-12.587,20.548
			c-8.9,2.919-18.312,4.443-27.601,5.959c-7.75,1.266-15.669,1.455-23.473,2.444c-11.741,1.488-24.094,2.193-27.838,16.927
			c-13.919,16.255-29.686,28.251-52.983,23.946c-11.88-2.196-16.026-7.553-14.358-19.786c1.027-7.537,6.192-14.936,0.648-22.656
			c-0.475-18.097-4.419-35.393-9.279-52.876c-3.037-10.924-4.639-20.641-15.547-26.591
			C956.72,957.108,955.709,952.171,953.852,948.786z"/>
		<path fill="#FDAE47" d="M132.466,942.537c0.986,2.118,1.495,4.7,3.034,6.281c14.674,15.08,23.042,33.09,27.089,53.669
			c1.224,6.222,3.475,11.772,0.837,18.13c-1.143,2.756-2.231,6.71-1.107,9.041c7.15,14.829-3.51,25.344-8.306,37.28
			c-14.822,11.279-20.252,29.569-32.135,43.039c-13.424-3.161-24.523-10.14-34.164-19.914c-4.373-4.433-9.264-8.54-14.493-11.905
			c-9.602-6.18-13.898-15.088-13.523-25.91c0.793-22.916,2.7-45.392,19.504-63.829c11.092-12.171,20.864-25.594,30.674-38.867
			C115.959,941.323,123.148,939.123,132.466,942.537z"/>
		<path fill="#FBE7DE" d="M953.852,948.786c1.857,3.385,2.868,8.322,5.723,9.878c10.908,5.949,12.511,15.667,15.547,26.591
			c4.859,17.483,8.803,34.779,9.279,52.876c-2.582,0.391-5.167,0.783-7.747,1.176c-4.862-29.595-13.626-57.796-29.617-83.461
			c-1.189-1.909-1.407-4.422-2.076-6.653C947.923,949.058,950.887,948.922,953.852,948.786z"/>
		<path fill="#FDAE47" d="M373.883,1027.151c0,0-0.266-0.405-0.266-0.404c0.293,2.351,0.586,4.701,0.879,7.05
			c-2.494,21.784-8.467,27.906-28.64,28.79c-6.253,0.274-12.538-0.165-18.813-0.276c-6.744-9.288-15.074-14.769-27.338-14.321
			c-5.921,0.216-12.062-2.258-17.91-4.121c-8.305-2.645-12.559-8.743-12.614-17.447c-0.035-5.378,0.434-10.76,0.677-16.14
			c0,0-0.284,0.254-0.284,0.255c4.471,0.718,7.877-0.649,9.767-4.986l-0.344,0.212c6.09-0.867,12.198-1.626,18.267-2.621
			c20.562-3.374,39.712-1.746,56.484,12.786C359.431,1020.857,367.113,1023.477,373.883,1027.151z"/>
		<path fill="#FBE7DE" d="M269.857,1010.283c-0.243,5.38-0.711,10.763-0.677,16.14c0.055,8.705,4.309,14.802,12.614,17.447
			c5.848,1.863,11.989,4.337,17.91,4.121c12.263-0.448,20.594,5.032,27.338,14.32c-29.942,5.955-56.053-0.362-76.703-24.038
			c-4.664-5.348-4.514-8.922,0.654-14.198C256.508,1018.447,262.432,1013.326,269.857,1010.283z"/>
		<path fill="#FBE7DE" d="M373.883,1027.151c-6.77-3.674-14.451-6.295-20.136-11.222c-16.772-14.533-35.922-16.16-56.484-12.786
			c-6.069,0.995-12.177,1.755-18.267,2.621c0.421-5.705,4.283-8.349,9.215-8.729c22.624-1.741,45.27-1.646,67.893,0.206
			c5.117,0.42,8.925,3.249,10.832,7.808C369.918,1012.178,374.415,1018.899,373.883,1027.151z"/>
		<path fill="#FBE7DE" d="M279.34,1005.552c-1.89,4.337-5.297,5.704-9.767,4.986C271.641,1006.549,274.81,1004.718,279.34,1005.552z
			"/>
		<path fill="#FBE7DE" d="M374.495,1033.798c-0.293-2.35-0.586-4.699-0.879-7.05C375.61,1028.885,378.51,1030.911,374.495,1033.798z
			"/>
	</g>
	<g>
		<path d="M1069.431,1053.163c-1.976,4.198-4.059,7.582-5.216,11.257c-6.259,19.888-20.966,28.707-40.505,30.774
			c-10.926,1.156-21.957,1.339-32.63,1.942c-23.621,31.83-25.403,27.233-55.016,27.701c-51.941,0.82-103.889,1.803-155.8,3.682
			c-48.759,1.765-97.452,5.385-146.213,7.062c-44.829,1.542-89.707,2.024-134.566,2.202c-109.419,0.432-218.84,0.379-328.26,0.634
			c-11.8,0.028-23.603,1.19-35.398,1.087c-7.815-0.069-15.73-0.901-23.388-2.447c-5.296-1.068-9.965-3.898-12.781-9.41
			c-5.823-11.396-15.136-19.796-24.625-28.198c-6.396-5.664-11.274-13.029-16.927-19.55c-4.862-5.609-7.093-12.224-7.443-19.465
			c-0.342-7.069-0.038-14.171-0.46-21.233c-1.433-23.987,4.576-44.665,23.033-61.653c8.53-7.852,14.353-18.653,21.359-28.15
			c6.986-9.468,13.227-19.446,24.04-25.531c5.487-3.087,8.187-8.416,9.78-15.208c1.71-7.294,6.033-14.408,10.663-20.501
			c13.313-17.519,27.235-34.582,41.132-51.649c76.53-93.989,151.499-189.314,230.174-281.474
			c72.546-84.979,147.87-167.659,225.504-248.128c3.116-3.229,5.831-6.844,8.454-9.949c-2.958-5.905-7.353-4.33-10.925-4.321
			c-35.405,0.087-70.839-0.513-106.207,0.735c-70.789,2.499-141.673,4.319-212.263,9.737c-48.673,3.736-97.157,8.976-146.035,7.386
			c-10.94-0.356-22.087-1.171-32.683-3.693c-17.282-4.115-24.413-14.194-20.895-31.067c2.992-14.348,1.49-28.005-0.167-42.123
			c-3.302-28.134-6.753-56.322-8.122-84.586c-0.985-20.324,1.004-40.827,2.28-61.211c0.507-8.104,3.973-10.592,12.088-10.983
			c2.299-0.111,4.867,1.212,6.91,0.579c37.492-11.613,76.349-8.898,114.652-10.102c77.147-2.428,154.124,5.111,231.237,6.133
			c17.312,0.23,34.654,0.85,51.938,0.16c45.614-1.82,91.191-4.615,136.809-6.327c29.092-1.093,58.23-1.206,87.348-1.298
			c36.206-0.115,72.344,0.046,108.487-3.748c40.21-4.221,80.178-0.506,119.595,8.549c4.59,1.054,9.062,2.632,13.575,4.009
			c9.099,2.775,14.7,8.738,16.471,18.169c0.58,3.092,1.382,6.156,1.756,9.272c6.2,51.543,12.352,103.091,18.493,154.641
			c0.279,2.341,0.471,4.706,0.495,7.062c0.263,24.678-12.346,36.269-36.891,33.624c-7.03-0.758-13.942-2.568-20.966-3.424
			c-6.97-0.851-14.012-1.108-21.517-1.662c-30.546,35.415-61.564,69.891-90.937,105.716
			c-82.35,100.438-165.088,200.536-249.512,299.25c-25.548,29.872-48.223,62.182-72.838,92.874
			c-15.249,19.013-31.649,37.104-47.577,55.571c-20.013,23.204-40.072,46.37-59.493,68.838c1.847,6.869,6.28,6.009,9.921,6.049
			c54.306,0.591,108.556,0.663,162.842-2.955c40.801-2.719,81.811-2.841,122.734-3.089c48.01-0.29,96.027,0.585,144.041,0.835
			c8.645,0.045,17.35,0.061,25.926-0.855c27.518-2.935,36.271-1.174,57.813,12.853c7.718-0.716,15.49-1.738,23.294-2.101
			c15.941-0.74,30.302,4.321,39.447,17.322c12.922,18.372,28.806,26.455,51.655,25.249c20.431-1.079,40.585,4.389,60.001,11.249
			c11.726,4.141,21.162,10.587,22.583,24.403c1.58,15.376-3.124,27.877-16.377,36.624c-11.523,7.606-24.486,10.528-37.961,11.58
			C1086.795,1052.552,1078.184,1052.747,1069.431,1053.163z M394.109,920.036c7.241-10.058,11.815-19.615,19.139-26.039
			c34.528-30.285,63.426-65.65,91.993-101.183c45.356-56.42,89.475-113.832,134.266-170.708
			c42.356-53.785,84.814-107.491,127.388-161.103c43.556-54.849,86.289-110.408,136.125-159.925
			c1.831-1.819,2.551-4.754,4.634-8.817c-6.866-0.344-11.427-0.77-15.987-0.77c-55.085,0.003-110.17,0.046-165.255,0.142
			c-9.441,0.017-18.895,0.084-28.318,0.592c-7.031,0.379-11.455,4.231-12.375,10.759c7.119,11.066,13.994,21.474,20.536,32.088
			c2.014,3.267,3.68,7.098-0.979,11.561c-2.147-0.239-5.144-0.348-8.045-0.934c-12.048-2.429-21.012-10.306-30.469-17.345
			c-0.994-0.741-2.763-0.44-5.257-0.763c-2.818,3.71-5.959,7.846-9.283,12.222c7.736,9.986,16.537,18.486,13.309,31.14
			c-10.389,4.949-18.131,1.948-25.226-3.807c-3.251-2.638-6.603-4.888-10.374-1.969c-2.207,1.71-3.427,4.695-5.182,7.239
			c3.431,3.752,6.595,6.265,8.505,9.517c3.149,5.359,6.147,10.988,7.995,16.884c2.297,7.33-4.967,14.227-12.537,12.144
			c-3.648-1.004-7.41-2.801-10.249-5.249c-4.02-3.466-7.236-7.865-10.928-12.015c-6.984,3.183-11.957,7.41-12.827,13.845
			c5.858,6.996,11.436,12.615,15.599,19.137c1.705,2.672,1.351,7.662,0.156,10.951c-1.866,5.138-7.507,6.677-11.872,5.122
			c-6.485-2.312-12.298-6.5-18.416-9.854c-1.957-1.075-3.975-2.037-6.977-3.567c-3.725,4.962-7.312,9.739-9.486,12.635
			c3.75,10.373,7.421,18.148,9.244,26.335c1.427,6.411-6.102,12.307-12.364,9.942c-7.066-2.669-13.638-6.647-21.124-10.407
			c-4.854,5.51-9.442,10.719-14.253,16.181c7.49,14.895,20.392,26.783,20.294,45.62c-18.985,0.751-27.034-15.759-40.893-23.4
			c-6.342,6.951-12.042,13.198-17.294,18.955c2.929,7.735,5.326,14.066,7.509,19.831c-9.43,9.192-16.912-2.452-26.355-0.446
			c-2.656,3.011-5.912,6.418-8.829,10.094c-2.788,3.514-5.224,7.309-7.522,10.564c1.882,3.496,2.999,5.538,4.087,7.596
			c2.807,5.307,9.24,9.417,6.252,16.68c-1.703,4.139-11.077,3.945-18.952-2.322c-1.221-0.972-2.554-1.988-4.004-2.433
			c-1.341-0.412-2.908-0.088-5.646-0.088c-2.215,2.809-5.005,6.345-7.632,9.675c4.451,7.662,8.649,14.2,12.128,21.101
			c2.683,5.321-2.263,12.079-8.002,10.725c-5.997-1.413-11.623-4.348-17.487-6.404c-2.105-0.738-4.428-0.856-7.768-1.458
			c-3.998,5.415-8.05,10.903-11.719,15.875c3.37,6.139,6.564,10.753,8.41,15.854c0.862,2.381-0.271,6.08-1.713,8.443
			c-0.715,1.171-4.462,1.464-6.33,0.776c-4.993-1.84-9.711-4.426-15.039-6.952c-8.682,8.451-16.438,16.825-21.582,27.211
			c6.559,7.509,12.534,13.733,17.757,20.534c3.818,4.971,6.137,10.765,2.707,17.651c-16.443,2.789-25.631-10.699-39.042-16.702
			c-5.13,6.046-10.102,11.904-14.307,16.86c0.227,8.277,7.321,14.425,0.463,22.888c-5.652,0-12.378,0-19.211,0
			c-4.728,6.339-8.835,11.846-12.716,17.049c2.703,6.147,5.198,11.029,7,16.155c1.594,4.534-3.553,9.529-8.419,8.103
			c-5.13-1.503-10.044-3.743-15.902-5.986c-5.666,6.693-11.069,13.074-17.88,21.12c5.309,4.359,9.901,7.443,13.596,11.369
			c3.242,3.445,0.59,10.329-4.159,11.132c-3.758,0.636-7.791,0.671-11.547,0.046c-5.176-0.862-10.207-2.6-15.91-4.126
			c-2.934,4.772-5.278,8.584-7.226,11.752c3.098,7.454,13.066,12.011,8.564,19.368c-5.299,8.66-14.088,1.667-21.388,0.888
			c-0.725-0.077-1.498,0.3-4.015,0.859c-3.724,5.063-8.252,11.217-13.131,17.85c7.7,9.085,14.629,17.259,22.518,26.566
			c-18.145,10.265-27.612-7.729-40.969-10.745c-6.443,9.516-15.391,16.107-20.264,28.746
			C242.72,913.022,319.25,921.032,394.109,920.036z M858.109,82.157c2.658,13.334,5.534,23.903,6.703,34.658
			c1.301,11.964-3.274,19.87-10.385,21.253c-7.129,1.386-15.151-3.729-20.425-13.184c-6.359-11.398-7.796-23.745-7.074-36.553
			c0.066-1.173-1.556-2.44-2.398-3.675c-5.364-1.73-10.586-2.41-16.215,2.974c0.441,6.859,1.655,14.627,1.23,22.304
			c-0.426,7.697-1.992,15.438-4.017,22.9c-1.259,4.641-8.071,5.435-11.837,2.244c-8.447-7.158-10.342-17.404-12.684-27.299
			c-1.76-7.442-2.608-15.101-3.893-22.849c-13.165,0-24.784,0-37.426,0c4.332,16.24,9.856,31.055,11.929,46.339
			c2.165,15.958,3.39,32.87-8.072,46.363c-9.116,0.787-13.177-4.734-15.182-10.391c-4.169-11.76-8.04-23.84-10.002-36.113
			c-2.335-14.604-2.537-29.549-3.709-44.962c-11.354-2.268-21.861-3.571-32.319,1.109c0,9.447,0.325,18.054-0.117,26.621
			c-0.285,5.528-1.646,11.129-7.587,13.663c-4.111,1.753-9.742-3.43-12.236-11.988c-2.799-9.608-4.933-19.41-7.61-30.146
			c-11.144,1.042-21.256-0.712-32.295,4.385c0.95,6.305,1.956,12.361,2.751,18.446c0.709,5.43,1.786,10.923,1.498,16.324
			c-0.134,2.53-2.635,6.178-4.907,7.007c-2.313,0.844-6.244-0.384-8.454-2.048c-7.358-5.545-9.6-14.178-11.808-22.544
			c-1.538-5.826-2.311-11.854-3.586-18.647c-9.702,0.429-18.15,0.802-28.24,1.248c3.053,7.508,5.751,13.103,7.593,18.966
			c1.868,5.947,3.676,12.123,3.951,18.269c0.14,3.119-2.459,8.022-5.091,9.148c-2.793,1.194-8.042-0.008-10.558-2.131
			c-8.144-6.873-11.79-16.41-13.127-26.89c-0.672-5.264-1.601-10.496-2.453-16c-10.398-0.945-19.492-1.866-26.978,2.14
			c0.294,12.577,0.986,23.431,0.581,34.243c-0.159,4.259-1.67,9.298-8.67,10.173c-13.773-11.134-7.104-28.762-11.343-42.882
			c-16.399,0-31.841,0-49.019,0c2.376,7.626,4.323,13.428,5.99,19.31c4.957,17.499,8.563,35.24,6.219,53.516
			c-0.8,6.237-3.032,13.096-9.959,14.83c-7.17,1.795-11.693-3.849-15.046-9.155c-2.898-4.585-4.893-9.845-6.662-15.02
			c-5.169-15.123-6.475-30.68-5.063-46.604c0.449-5.061-0.645-10.26-1.068-15.862c-14.102-0.901-26.496-1.644-40.125,1.685
			c0.947,5.681,2.449,10.892,2.537,16.126c0.129,7.709-0.196,15.521-1.404,23.118c-0.741,4.661-8.217,5.233-11.492,1.613
			c-5.198-5.746-5.619-12.84-5.955-19.889c-0.325-6.828-0.07-13.683-0.07-20.37c-19.87-3.746-19.87-3.746-32.895-0.006
			c0,8.876,0.668,17.412-0.204,25.787c-0.741,7.119-8.701,9.191-14.451,4.731c-9.618-7.461-11.606-18.165-13.207-29.194
			c-0.177-1.219-1.878-2.217-3.704-4.238c-4.448,0.608-9.582,1.31-14.392,1.967c-3.215,12.948,4.074,26.729-8.128,37.44
			c-15.414-6.789-13.865-23.137-19.154-35.651c-9.523-3.101-18.479-3.031-28.596-0.16c0,5.997,0.142,11.357-0.039,16.707
			c-0.185,5.472-0.334,10.996-1.251,16.368c-0.301,1.766-2.757,4.031-4.583,4.427c-1.866,0.404-5.254-0.585-6.088-2.044
			c-3.062-5.354-5.907-10.978-7.75-16.841c-1.841-5.858-2.384-12.124-3.512-18.3c-10.979-2.808-20.767-1.436-31.407,0.847
			c0.972,7.204,2.398,13.266,2.481,19.345c0.161,11.743,0.018,23.536-1.029,35.217c-0.269,3.003-4.201,7.717-6.765,7.934
			c-2.903,0.246-7.157-3.021-9.081-5.918c-6.298-9.48-7.467-20.568-7.834-31.651c-0.253-7.661-0.048-15.339-0.048-24.265
			c-10.592-0.716-19.534-2.342-29.775,1.336c0,5.902-0.032,11.323,0.005,16.743c0.171,24.508,4.444,48.535,8.247,72.643
			c3.675,23.302,6.742,46.699,10.028,70.061c0.621,4.416,1.017,8.864,1.601,14.036c5.697,0.724,10.294,1.883,14.868,1.797
			c27.54-0.519,55.099-0.819,82.604-2.168c29.076-1.426,58.075-5.209,87.148-5.723c63.745-1.126,127.515-0.851,191.275-1.107
			c7.084-0.029,14.169,0.317,21.253,0.302c39.354-0.082,78.709-0.211,118.063-0.363c3.14-0.012,6.663,0.554,9.352-0.634
			c11.948-5.28,23.288-8.305,35.432,0.333c3.22,2.29,9.204,0.874,13.919,0.861c81.082-0.213,162.164-0.433,243.245-0.806
			c6.106-0.028,12.207-1.222,19.914-2.046c-0.468-8.28-0.741-15.19-1.276-22.081c-0.73-9.409-2.402-18.806-2.369-28.202
			c0.111-30.688,0.758-61.377,1.318-92.062c0.186-10.162,1.004-20.358-3.697-29.366c-27.535-9.313-48.327-11.474-64.939-6.659
			c0.832,3.744,1.977,7.496,2.445,11.331c0.756,6.187,1.629,12.458,1.302,18.634c-0.137,2.6-2.844,6.706-5.014,7.171
			c-3.255,0.696-7.831-0.2-10.495-2.209c-7.201-5.431-10.299-13.684-12.378-22.221c-1.448-5.944-2.653-11.947-4.024-18.185
			c-6.681-0.317-12.143-0.767-17.605-0.772C867.51,81.07,863.677,81.674,858.109,82.157z M145.025,939.281
			c3.477,7.841,4.351,12.895,7.296,15.954c18.824,19.539,20.184,43.113,16.809,67.99c-0.211,1.552-0.189,3.143-0.181,4.715
			c0.121,22.701-5.198,43.547-20.332,61.23c-3.567,4.167-6.712,8.756-9.582,13.438c-1.794,2.927-2.713,6.391-3.813,9.094
			c15.416,0,29.538-0.384,43.633,0.068c52.679,1.688,105.338,4.055,158.025,5.359c33.004,0.817,66.045,0.198,99.069,0.209
			c22.793,0.008,45.588-0.14,68.38,0.025c20.447,0.149,40.905,1.264,61.335,0.828c36.957-0.79,73.898-2.364,110.84-3.728
			c11.789-0.435,23.582-1.012,35.343-1.918c56.461-4.349,112.921-8.739,169.363-13.336c15.671-1.276,31.313-3.064,46.905-5.109
			c7.958-1.045,15.464-4.005,19.694-11.503c18.63-33.025,22.494-66.779,2.84-100.678c-7.435-12.824-16.813-24.521-25.868-37.541
			c-38.633-1.468-77.108-3.185-115.6-4.336c-60.539-1.811-121.082-3.555-181.636-4.646c-18.824-0.34-37.687,1.518-56.533,2.375
			c-10.214,0.464-20.434,1.46-30.639,1.315c-39.321-0.557-78.635-1.579-117.955-2.211c-16.512-0.266-33.09-0.87-49.54,0.194
			c-67.6,4.372-135.213,4.813-202.878,2.247C162.991,939.05,155.962,939.281,145.025,939.281z M120.621,942.906
			c-4.092,5.18-7.234,8.548-9.673,12.364c-5.918,9.259-10.17,19.972-17.503,27.858c-16.425,17.662-18.556,37.791-17.801,60.742
			c0.522,15.876,5.69,26.985,16.639,36.815c5.735,5.151,11.535,10.23,17.868,15.84c10.576-8.69,16.285-20.419,25.416-28.634
			c11.694-10.521,15.059-23.242,14.972-37.892c-0.028-4.709,0.036-9.439,0.446-14.126c1.28-14.607-1.014-27.699-11.705-39.093
			c-5.193-5.534-7.944-13.382-11.695-20.24C125.466,952.665,123.557,948.675,120.621,942.906z M996.721,1063.804
			c18.856-0.497,34.189-2.704,40.461-22.737c2.472-7.894,9.592-11.907,18.369-12.544c14.896-1.079,29.749-2.732,44.636-3.949
			c8.706-0.712,17.146-1.927,24.091-7.904c2.74-2.358,2.506-9.015-0.7-10.164c-5.896-2.114-11.867-4.395-18.004-5.394
			c-19.384-3.154-38.796-6.364-58.319-8.353c-14.232-1.449-25.382-6.112-33.422-18.713c-4.565-7.153-11.135-13.262-17.627-18.891
			c-8.579-7.439-18.646-10.065-31.835-6.14C989.207,984.082,998.657,1022.111,996.721,1063.804z"/>
		<path d="M316.907,981.352c20.829,0.419,36.859,6.699,50.501,17.768c18.659,15.139,19.288,43.644,2.089,60.511
			c-3.313,3.249-7.117,6.433-11.297,8.29c-25.677,11.416-52.082,17.074-79.939,8.46c-12.365-3.823-22.594-10.786-30.47-21.03
			c-12.054-15.678-11.764-34.461,0.865-49.716c7.697-9.296,17.341-16.316,29.196-18.672
			C291.654,984.221,305.738,982.901,316.907,981.352z M317.018,1045.048c7.731-1.224,17.283-1.732,26.184-4.407
			c10.513-3.158,12.397-15.132,4.342-22.575c-1.714-1.584-3.782-2.793-5.72-4.126c-14.62-10.054-31.043-10.361-47.673-8.231
			c-8.493,1.088-18.747,13.529-18.439,21.98c0.102,2.797,1.826,6.493,4.03,8.053c4.368,3.092,9.362,5.955,14.505,7.136
			C301.067,1044.444,308.279,1044.309,317.018,1045.048z"/>
		<path d="M887.358,995.58c-2.59,7.767-7.851,9.618-13.307,10.317c-14.797,1.899-29.652,4.728-44.485,4.732
			c-69.214,0.023-138.437-0.721-207.54-5.077c-11.625-0.733-23.154-3.904-34.539-6.71c-1.967-0.484-3.714-4.681-4.156-7.392
			c-0.237-1.455,2.217-4.406,3.982-4.937c5.934-1.784,12.097-3.856,18.184-3.895c22.804-0.147,45.616,0.29,68.417,0.837
			c48.738,1.169,97.471,2.612,146.209,3.791c14.152,0.342,28.319,0.027,42.474,0.279
			C871.183,987.678,879.933,987.779,887.358,995.58z"/>
		<path d="M739.752,1057.664c-34.619,0-69.244,0.362-103.853-0.2c-11.708-0.19-23.43-2.406-35.033-4.362
			c-3.624-0.612-7.192-3.001-10.232-5.308c-4.736-3.593-4.208-11.697,1.158-13.803c5.711-2.242,11.989-4.279,18.013-4.263
			c22.795,0.06,45.706-0.27,68.36,1.838c58.02,5.4,115.982,10.321,174.342,6.861c6.915-0.411,14.069,0.715,20.868,2.228
			c2.265,0.503,5.414,4.585,5.228,6.782c-0.281,3.321-2.567,8.596-4.991,9.225c-8.206,2.129-16.867,3.645-25.32,3.492
			c-36.177-0.655-72.342-1.992-108.511-3.08C739.771,1057.27,739.762,1057.467,739.752,1057.664z"/>
		<path d="M470.153,959.807c8.537-3.84,14.574-0.45,19.497,5.063c9.634,10.786,15.397,23.446,16.636,37.979
			c2.362,27.708-1.332,54.61-10.982,80.679c-2.469,6.671-5.666,12.851-12.266,16.579c-5.835,3.296-13.879-0.623-13.847-7.176
			c0.018-3.839,0.653-7.766,1.622-11.493c7.865-30.267,6.604-60.305-1.277-90.395C466.8,980.598,464.441,969.745,470.153,959.807z"
			/>
		<path d="M407.332,965.455c2.488-2.278,4.432-5.495,6.912-5.984c3.546-0.7,8.736-0.769,11.01,1.312
			c5.647,5.166,11.877,10.964,14.634,17.812c15.454,38.37,10.927,75.284-10.51,110.342c-1.203,1.967-2.873,3.963-4.824,5.069
			c-1.879,1.067-5.882,1.978-6.37,1.243c-1.494-2.251-2.043-5.292-2.354-8.094c-0.152-1.372,0.866-2.993,1.646-4.333
			c21.723-37.332,17.89-73.369-5.356-108.487C410.427,971.774,409.181,968.915,407.332,965.455z"/>
	</g>
</g>
</svg>
